<?xml version="1.0" encoding="UTF-8" standalone="no"?>
<!-- Created with Inkscape (http://www.inkscape.org/) -->

<svg
   width="256.00009"
   height="255.99989"
   viewBox="0 0 67.733353 67.733304"
   version="1.1"
   id="svg5"
   sodipodi:docname="feedra.svg"
   inkscape:version="1.1.2 (0a00cf5339, 2022-02-04)"
   xmlns:inkscape="http://www.inkscape.org/namespaces/inkscape"
   xmlns:sodipodi="http://sodipodi.sourceforge.net/DTD/sodipodi-0.dtd"
   xmlns="http://www.w3.org/2000/svg"
   xmlns:svg="http://www.w3.org/2000/svg">
  <sodipodi:namedview
     id="namedview7"
     pagecolor="#ffffff"
     bordercolor="#666666"
     borderopacity="1.0"
     inkscape:pageshadow="2"
     inkscape:pageopacity="0.0"
     inkscape:pagecheckerboard="0"
     inkscape:document-units="mm"
     showgrid="false"
     showguides="true"
     inkscape:guide-bbox="true"
     inkscape:zoom="1.5540715"
     inkscape:cx="141.56363"
     inkscape:cy="88.799003"
     inkscape:window-width="3440"
     inkscape:window-height="1371"
     inkscape:window-x="0"
     inkscape:window-y="32"
     inkscape:window-maximized="1"
     inkscape:current-layer="layer1"
     units="px"
     fit-margin-top="0"
     fit-margin-left="0"
     fit-margin-right="0"
     fit-margin-bottom="0">
    <sodipodi:guide
       position="-46.218237,33.453894"
       orientation="0,-1"
       id="guide1362" />
  </sodipodi:namedview>
  <defs
     id="defs2" />
  <g
     inkscape:label="Layer 1"
     inkscape:groupmode="layer"
     id="layer1"
     transform="translate(-71.133317,-114.63335)">
    <g
       id="g851"
       transform="matrix(0.52283073,0,0,0.54570505,50.102771,67.462801)"
       inkscape:export-filename="/home/grimus/Desktop/g851.png"
       inkscape:export-xdpi="96"
       inkscape:export-ydpi="96">
      <rect
         style="fill:none;fill-rule:evenodd;stroke:#000000;stroke-width:8.5;stroke-miterlimit:4;stroke-dasharray:none;stroke-opacity:1"
         id="rect89"
         width="121.05122"
         height="115.62072"
         x="44.474388"
         y="90.689636"
         rx="12.867649" />
      <ellipse
         style="fill:none;stroke:#000000;stroke-width:0;stroke-miterlimit:4;stroke-dasharray:none;stroke-opacity:1"
         id="path1972"
         cx="101.15522"
         cy="148.9864"
         rx="15"
         ry="15.000343" />
      <path
         style="fill:none;stroke:#000000;stroke-width:0;stroke-miterlimit:4;stroke-dasharray:none;stroke-opacity:1"
         d="m 193.95671,761.52376 c -8.01067,-2.51419 -16.02685,-9.68907 -19.6965,-17.62937 l -1.96471,-4.25117 V 561.89245 384.14169 l 2.45899,-5.00678 c 3.20977,-6.53547 9.04124,-12.39806 15.27063,-15.35212 l 5.00066,-2.37138 h 188.20669 188.2067 l 5.12932,2.51894 c 6.24747,3.06805 11.94724,9.0601 15.18208,15.96064 l 2.41888,5.15991 0.27042,173.20471 c 0.19744,126.45483 -0.008,174.67715 -0.76192,178.65998 -2.00856,10.61387 -8.1003,18.4022 -18.03822,23.06198 l -5.10977,2.39593 -186.38827,0.17094 c -151.54016,0.13897 -187.09813,-0.0518 -190.18498,-1.02068 z M 395.6378,730.98342 c 39.47046,-3.90483 73.06514,-19.29743 101.13061,-46.33658 20.58387,-19.83114 34.82324,-42.22225 43.28396,-68.06314 23.74164,-72.51223 -2.82373,-150.95838 -65.36588,-193.02196 -39.03594,-26.25416 -85.61372,-34.99501 -131.84242,-24.74173 -25.03801,5.55329 -49.31818,17.33729 -69.3073,33.63722 -9.19507,7.49802 -24.15032,23.47303 -30.97756,33.08982 -11.12855,15.67559 -20.65758,36.29827 -25.61272,55.4309 -4.06004,15.6765 -4.64804,21.19665 -4.6003,43.18753 0.0414,19.09379 0.25622,21.90455 2.47031,32.33006 6.72459,31.66415 20.91751,59.11901 42.38166,81.98334 35.48874,37.80379 87.53027,57.54104 138.43964,52.50454 z"
         id="path2128"
         transform="scale(0.26458333)" />
      <circle
         style="fill:none;stroke:#000000;stroke-width:8.5;stroke-miterlimit:4;stroke-dasharray:none;stroke-opacity:1"
         id="path3996"
         cx="105"
         cy="148.5"
         r="42" />
      <circle
         style="fill:none;stroke:#000000;stroke-width:8.5;stroke-miterlimit:4;stroke-dasharray:none;stroke-opacity:1"
         id="path4100"
         cx="105"
         cy="148.5"
         r="17" />
      <path
         style="fill:#808080;stroke:#000000;stroke-width:0;stroke-miterlimit:4;stroke-dasharray:none;stroke-opacity:1"
         d="m 440.74875,358.16326 c -77.00647,0.10264 -154.03123,0.0491 -231.02621,0.28655 -12.03376,3.74606 -23.21288,13.23108 -25.28263,26.15986 -1.1265,32.33143 -0.50942,64.70697 -0.73648,97.05604 0.11484,80.18662 -0.36163,160.37713 0.34467,240.56115 0.62265,7.3761 -0.69282,15.34296 2.35364,22.28546 5.5087,11.80102 18.13403,20.76225 31.46219,19.39044 115.77196,0.178 231.54555,0.4106 347.31707,0.0295 9.46085,-0.57746 19.90723,1.42728 28.29409,-4.13746 10.67994,-6.23542 17.57117,-18.58478 16.47569,-31.01473 0.69945,-103.07721 0.0912,-206.15909 0.13062,-309.23809 -0.21232,-11.77699 0.37277,-23.68501 -0.32998,-35.38155 -3.27359,-11.63102 -12.33763,-21.60158 -24.15885,-24.7529 -8.78441,-1.80483 -17.91673,-0.61868 -26.83462,-1.09034 -39.3359,-0.21148 -78.67289,-0.15046 -118.0092,-0.15388 z m -45.86994,29.28548 c 51.1813,-1.53532 102.29949,22.371 135.15155,61.55453 37.53505,44.04969 50.50653,107.1662 33.66872,162.30726 -14.89239,50.58012 -54.35324,93.28592 -103.72627,112.19077 -22.05161,8.67769 -45.66304,12.49837 -69.27153,11.47458 -46.04065,-0.7683 -90.92626,-22.03075 -122.01191,-55.94051 -25.33303,-27.26282 -41.4209,-63.05454 -44.96635,-100.00018 -0.9434,-20.44679 -1.18145,-41.34625 4.49297,-61.14469 12.97541,-52.06125 51.85077,-96.90566 101.58115,-117.33679 20.58868,-8.43576 42.82386,-13.55419 65.08167,-13.10497 z"
         id="path5049"
         transform="scale(0.26458333)" />
      <path
         style="fill:#808080;stroke:#000000;stroke-width:0;stroke-miterlimit:4;stroke-dasharray:none;stroke-opacity:1"
         d="m 395.93325,512.51839 c -13.65183,0.18203 -27.04207,6.43996 -35.7051,17.04947 -14.85224,15.81945 -16.07394,41.9738 -3.338,59.41676 11.45352,16.64854 33.78311,25.38374 53.28995,19.10179 21.35348,-6.07196 37.44922,-27.84412 35.22798,-50.23711 -0.96599,-19.06379 -14.5565,-36.27173 -32.47186,-42.47299 -5.43164,-1.97499 -11.22275,-2.96104 -17.00297,-2.85792 z"
         id="path5088"
         transform="scale(0.26458333)" />
      <path
         style="fill:#c8fc0c;stroke:#000000;stroke-width:0;stroke-miterlimit:4;stroke-dasharray:none;stroke-opacity:1"
         d="m 395.17919,417.96208 c -46.91347,0.23545 -92.56452,25.56113 -118.09716,64.83132 -16.10498,24.41185 -24.63784,53.91205 -23.0997,83.18923 -0.0411,23.2015 7.24747,45.99676 18.4535,66.14597 20.48803,36.26656 57.4818,62.58071 98.47243,70.02648 13.90225,3.00825 28.24618,2.15442 42.34215,1.49054 43.82104,-4.97043 84.51572,-31.40162 106.79117,-69.47542 21.7748,-36.25995 26.33343,-82.37993 11.33439,-122.01437 -14.90996,-41.37246 -49.89969,-74.78286 -91.96705,-87.64904 -14.27863,-4.48391 -29.26421,-6.70344 -44.22973,-6.54471 z m 2.27853,63.80041 c 20.29844,-0.10631 40.34312,7.96509 54.64229,22.43345 13.97793,13.06861 22.9207,31.56043 23.95018,50.74696 2.59259,27.82458 -11.00284,56.69102 -34.47322,72.26289 -27.28165,18.78053 -66.516,18.11752 -92.68127,-2.49541 -18.39049,-13.7713 -30.57644,-35.78264 -31.30674,-58.70638 -1.46686,-21.39944 6.04486,-43.8308 21.37951,-59.22532 14.71198,-16.32517 36.69535,-25.25664 58.48925,-25.01619 z"
         id="path5127"
         transform="scale(0.26458333)" />
    </g>
  </g>
</svg>
